<?xml version="1.0" encoding="UTF-8" standalone="no"?>
<svg
   viewBox="0 0 250000 250000"
   version="1.1"
   id="svg10"
   width="250000"
   height="250000"
   xmlns="http://www.w3.org/2000/svg"
   xmlns:svg="http://www.w3.org/2000/svg"
   xmlns:bx="https://boxy-svg.com">
  <defs
     id="defs1">
    <style
       bx:fonts="Inter"
       id="style1">@import url(https://fonts.googleapis.com/css2?family=Inter%3Aital%2Cwght%400%2C100%3B0%2C200%3B0%2C300%3B0%2C400%3B0%2C500%3B0%2C600%3B0%2C700%3B0%2C800%3B0%2C900&amp;display=swap);</style>
  </defs>
  <text
     style="font-weight:700;font-size:72px;font-family:Inter;letter-spacing:2px;text-transform:capitalize;white-space:pre;fill:#0e0b06"
     x="13.449219"
     y="456.07047"
     id="text10">WILD TECH</text>
  <g
     transform="matrix(0.87499696,5.000002e-6,-5.000002e-6,0.87500101,36.267805,12.228818)"
     id="g8"
     style="display:inline;stroke-width:1;stroke-dasharray:none">
    <title
       id="title1">Logo</title>
    <path
       d="m 129.21172,68.644299 70.50638,4.03e-4 45.54209,-45.541792 c 2.61801,-2.617988 6.86349,-2.617964 9.48147,5.4e-5 l 45.54158,45.542313 66.93289,3.82e-4 c 3.70299,2.1e-5 6.70509,3.002167 6.70507,6.704296 l -3.9e-4,66.933195 49.11505,49.11584 c 2.61885,2.61802 2.61883,6.86352 -5e-5,9.48238 l -49.11561,49.11528 -3.6e-4,63.3597 c -3e-5,3.70213 -3.00216,6.70424 -6.70514,6.70422 l -63.35941,-3.7e-4 -49.11561,49.11528 c -2.61801,2.61886 -6.86349,2.61884 -9.48147,-5e-5 l -49.11504,-49.11584 -66.93289,-3.8e-4 c -3.70299,-2e-5 -6.70509,-3.00217 -6.70507,-6.7043 l 3.9e-4,-66.9332 -45.541589,-45.54231 c -2.617976,-2.6189 -2.617952,-6.8644 5.4e-5,-9.48239 l 45.542105,-45.54179 4e-4,-70.506702 c 2e-5,-3.702129 3.00215,-6.70424 6.70515,-6.704219 z"
       style="display:inline;fill:#d26260;fill-opacity:0.95;stroke:#0e0b06;stroke-width:15;stroke-linejoin:round;stroke-dasharray:none"
       id="path2"
       transform="matrix(1.1428611,-6.53063e-6,6.53063e-6,1.1428558,-41.449144,-13.975539)">
      <title
         id="title2">Outline</title>
    </path>
    <path
       style="display:inline;fill:#536340;fill-opacity:0.93;stroke:#000000;stroke-width:9.14287;stroke-linecap:round;stroke-linejoin:round;stroke-dasharray:none"
       d="m 250,320 c -62.004,0 -111.5,-50 -110,-150 -3.5,-30 79.96,20.693 70,30 -13.17,-1.065 15,-90 40,-90 25,0 54.585,86.763 40,90 -4.186,-8.273 70.5,-60 70,-30 6.4,100 -47.996,150 -110,150 z"
       id="path3"
       transform="translate(-5.9456322,-19.818275)" />
    <g
       id="g7"
       style="display:inline;fill:#0e0b06;fill-opacity:0;stroke-width:1;stroke-dasharray:none"
       transform="translate(399.67141,56.810201)">
      <title
         id="title3">Leaf</title>
      <g
         id="g11"
         transform="translate(-405.61704,-76.628477)"
         style="display:inline;fill:#0e0b06;fill-opacity:0;stroke-width:9.14287;stroke-dasharray:none">
        <line
           style="fill:#0e0b06;fill-opacity:0;stroke:#000000;stroke-width:9.14287;stroke-linecap:round;stroke-dasharray:none"
           x1="250"
           y1="180"
           x2="250"
           y2="350"
           id="line4" />
        <line
           style="fill:#0e0b06;fill-opacity:0;stroke:#000000;stroke-width:9.14287;stroke-linecap:round;stroke-dasharray:none"
           x1="179.35568"
           y1="235.00014"
           x2="249.35562"
           y2="295.00003"
           id="line5" />
        <line
           style="fill:#0e0b06;fill-opacity:0;stroke:#000000;stroke-width:9.14287;stroke-linecap:round;stroke-dasharray:none"
           x1="320.21368"
           y1="234.99992"
           x2="250.21341"
           y2="294.99994"
           id="line6" />
      </g>
    </g>
  </g>
</svg>
